<svg width="2614" height="1353" viewBox="0 0 2614 1353" fill="none" xmlns="http://www.w3.org/2000/svg">
<g clip-path="url(#clip0_13_2)">
<rect width="2614" height="1353" fill="#131313"/>
<path d="M1452.55 490.994C1460.8 450.965 1499.93 425.2 1539.96 433.446L2705.88 673.619C2747.39 682.169 2773.25 723.77 2762.55 764.779L2595.43 1405.3C2585.49 1443.4 2547.46 1467.04 2508.9 1459.1L1376.73 1225.88C1336.7 1217.63 1310.93 1178.5 1319.18 1138.47L1452.55 490.994Z" fill="#0D482C"/>
<path d="M1637.69 1051.1L1685.94 831.335L1709.67 836.545L1704.09 861.934L1707.01 862.574C1709.42 860.195 1712.69 857.205 1716.83 853.605C1721.05 849.951 1726.55 847.087 1733.33 845.013C1740.2 842.884 1748.83 842.963 1759.24 845.248C1772.7 848.203 1783.82 854.172 1792.61 863.155C1801.4 872.138 1807.32 883.436 1810.36 897.048C1813.41 910.66 1813.09 925.86 1809.41 942.647C1805.69 959.574 1799.59 973.613 1791.1 984.766C1782.63 995.85 1772.56 1003.67 1760.87 1008.23C1749.19 1012.72 1736.69 1013.5 1723.37 1010.58C1713.11 1008.32 1705.26 1004.82 1699.83 1000.07C1694.42 995.241 1690.53 990.278 1688.16 985.177C1685.8 980.006 1684.04 975.766 1682.88 972.456L1680.8 971.999L1662.25 1056.49L1637.69 1051.1ZM1692.54 916.55C1689.89 928.621 1689.32 939.657 1690.83 949.661C1692.36 959.594 1695.95 967.909 1701.61 974.604C1707.28 981.23 1715.04 985.625 1724.89 987.788C1735.15 990.042 1744.32 989.218 1752.37 985.315C1760.51 981.358 1767.33 975.147 1772.82 966.682C1778.4 958.164 1782.44 948.216 1784.94 936.839C1787.41 925.601 1787.9 915.092 1786.41 905.313C1785 895.479 1781.41 887.164 1775.63 880.369C1769.94 873.519 1761.89 868.952 1751.48 866.668C1741.49 864.474 1732.54 865.163 1724.63 868.734C1716.74 872.236 1710.07 878.116 1704.62 886.372C1699.18 894.559 1695.16 904.619 1692.54 916.55ZM1893.61 1047.96C1879.18 1044.79 1867.27 1038.58 1857.89 1029.32C1848.58 1020.07 1842.22 1008.61 1838.83 994.919C1835.51 981.246 1835.66 966.154 1839.28 949.644C1842.94 932.995 1849.15 919.125 1857.91 908.032C1866.74 896.956 1877.32 889.171 1889.65 884.68C1902.05 880.204 1915.46 879.55 1929.89 882.718C1944.32 885.886 1956.19 892.092 1965.51 901.336C1974.89 910.595 1981.23 922.096 1984.54 935.838C1987.92 949.596 1987.78 964.799 1984.13 981.448C1980.5 997.958 1974.28 1011.72 1965.46 1022.72C1956.72 1033.75 1946.15 1041.5 1933.75 1045.97C1921.42 1050.46 1908.04 1051.13 1893.61 1047.96ZM1898.45 1025.9C1909.41 1028.3 1919.05 1027.48 1927.36 1023.41C1935.67 1019.34 1942.53 1013.11 1947.94 1004.7C1953.35 996.286 1957.22 986.739 1959.57 976.056C1961.92 965.373 1962.4 955.045 1961.03 945.072C1959.65 935.1 1956.05 926.493 1950.23 919.251C1944.4 912.009 1936.01 907.184 1925.05 904.778C1914.09 902.371 1904.44 903.235 1896.12 907.37C1887.79 911.504 1880.92 917.812 1875.49 926.292C1870.07 934.771 1866.18 944.353 1863.84 955.036C1861.49 965.719 1861.01 976.012 1862.4 985.915C1863.79 995.818 1867.41 1004.36 1873.25 1011.53C1879.09 1018.7 1887.49 1023.49 1898.45 1025.9ZM2068.45 1086.35C2053.46 1083.06 2041.34 1076.69 2032.07 1067.23C2022.8 1057.78 2016.62 1046.21 2013.52 1032.51C2010.42 1018.81 2010.62 1003.99 2014.12 988.034C2017.68 971.801 2023.81 958.131 2032.51 947.024C2041.28 935.862 2051.82 927.959 2064.11 923.314C2076.48 918.614 2089.88 917.848 2104.31 921.017C2115.55 923.484 2125.22 927.789 2133.33 933.931C2141.43 940.074 2147.54 947.523 2151.65 956.279C2155.76 965.035 2157.42 974.561 2156.61 984.855L2132.06 979.462C2131.78 971.767 2129.04 964.402 2123.82 957.366C2118.69 950.277 2110.71 945.544 2099.89 943.168C2090.31 941.066 2081.37 941.72 2073.06 945.13C2064.83 948.487 2057.72 954.232 2051.71 962.367C2045.8 970.448 2041.51 980.523 2038.86 992.593C2036.15 1004.94 2035.73 1016.12 2037.6 1026.13C2039.55 1036.16 2043.54 1044.48 2049.57 1051.12C2055.67 1057.77 2063.58 1062.16 2073.29 1064.29C2079.67 1065.69 2085.71 1065.85 2091.4 1064.77C2097.09 1063.7 2102.2 1061.47 2106.72 1058.1C2111.24 1054.73 2114.9 1050.3 2117.71 1044.81L2142.26 1050.2C2138.8 1059.33 2133.5 1067.07 2126.36 1073.43C2119.31 1079.74 2110.82 1084.13 2100.9 1086.6C2091.06 1089.02 2080.24 1088.94 2068.45 1086.35ZM2213.6 1013.95L2192.48 1110.09L2167.93 1104.7L2214.72 891.595L2239.28 896.987L2222.09 975.237L2224.18 975.694C2229.73 968.261 2236.79 962.94 2245.35 959.729C2253.99 956.464 2264.59 956.21 2277.15 958.967C2288.04 961.358 2297.1 965.638 2304.32 971.805C2311.57 977.904 2316.46 985.922 2319 995.861C2321.63 1005.75 2321.44 1017.56 2318.42 1031.29L2296.12 1132.85L2271.57 1127.46L2293.5 1027.56C2296.29 1014.87 2295.15 1004.33 2290.08 995.946C2285.1 987.507 2276.81 982.017 2265.23 979.473C2257.18 977.706 2249.6 977.821 2242.47 979.819C2235.41 981.832 2229.32 985.695 2224.22 991.409C2219.18 997.138 2215.64 1004.65 2213.6 1013.95ZM2341.05 1142.71L2376.14 982.885L2400.7 988.277L2365.61 1148.11L2341.05 1142.71ZM2394.48 958.988C2389.69 957.937 2385.92 955.401 2383.17 951.379C2380.49 947.372 2379.65 943.079 2380.65 938.501C2381.66 933.923 2384.22 930.376 2388.33 927.862C2392.52 925.363 2397 924.64 2401.79 925.691C2406.58 926.742 2410.31 929.27 2412.99 933.277C2415.75 937.299 2416.62 941.599 2415.62 946.178C2414.61 950.756 2412.02 954.295 2407.83 956.794C2403.72 959.308 2399.27 960.039 2394.48 958.988Z" fill="white"/>
<path d="M634.823 713.816C617.729 690.74 622.578 658.174 645.655 641.079L1638.49 -94.3923C1662.42 -112.12 1696.33 -106.166 1712.78 -81.3443L2102.95 507.083C2118.24 530.142 2112.79 561.135 2090.56 577.603L1127.25 1291.2C1104.18 1308.3 1071.61 1303.45 1054.51 1280.37L634.823 713.816Z" fill="#13201F"/>
<path d="M1218.49 954.935L1068.61 787.117L1086.73 770.937L1104.05 790.325L1106.27 788.338C1105.76 784.989 1105.25 780.585 1104.75 775.124C1104.26 769.563 1105.16 763.427 1107.45 756.716C1109.75 749.904 1114.87 742.95 1122.82 735.854C1133.09 726.676 1144.45 721.155 1156.88 719.292C1169.3 717.429 1181.93 719.248 1194.75 724.751C1207.56 730.253 1219.7 739.414 1231.14 752.234C1242.69 765.159 1250.5 778.326 1254.57 791.735C1258.59 805.091 1259.03 817.842 1255.88 829.987C1252.68 842.08 1245.99 852.668 1235.82 861.751C1227.98 868.753 1220.55 873.061 1213.51 874.676C1206.43 876.238 1200.13 876.485 1194.61 875.419C1189.04 874.299 1184.57 873.242 1181.21 872.248L1179.62 873.667L1237.24 938.188L1218.49 954.935ZM1141.55 831.678C1149.78 840.895 1158.39 847.82 1167.39 852.453C1176.33 857.033 1185.18 858.991 1193.92 858.328C1202.61 857.612 1210.71 853.895 1218.24 847.177C1226.08 840.175 1230.77 832.267 1232.33 823.451C1233.89 814.535 1232.85 805.372 1229.2 795.961C1225.57 786.45 1219.87 777.351 1212.11 768.663C1204.44 760.082 1196.21 753.53 1187.41 749.009C1178.62 744.388 1169.78 742.43 1160.89 743.135C1152 743.739 1143.58 747.59 1135.64 754.686C1128.01 761.498 1123.32 769.156 1121.59 777.659C1119.8 786.11 1120.66 794.961 1124.16 804.213C1127.62 813.412 1133.41 822.567 1141.55 831.678ZM1365.82 745.656C1354.8 755.497 1342.79 761.508 1329.79 763.691C1316.84 765.827 1303.83 764.262 1290.75 758.996C1277.72 753.683 1265.57 744.722 1254.31 732.114C1242.96 719.401 1235.35 706.245 1231.49 692.647C1227.69 679.002 1227.57 665.867 1231.15 653.243C1234.79 640.571 1242.11 629.315 1253.13 619.475C1264.15 609.635 1276.13 603.647 1289.08 601.511C1302.08 599.328 1315.12 600.919 1328.19 606.286C1341.32 611.605 1353.57 620.621 1364.92 633.334C1376.18 645.942 1383.69 659.042 1387.45 672.634C1391.26 686.179 1391.35 699.288 1387.72 711.959C1384.14 724.584 1376.84 735.816 1365.82 745.656ZM1350.77 728.811C1359.14 721.336 1364.12 713.041 1365.69 703.924C1367.26 694.808 1366.22 685.595 1362.57 676.284C1358.92 666.974 1353.45 658.239 1346.17 650.082C1338.88 641.924 1330.8 635.481 1321.91 630.754C1313.02 626.027 1303.94 623.904 1294.65 624.385C1285.37 624.867 1276.54 628.845 1268.17 636.32C1259.8 643.795 1254.86 652.117 1253.33 661.286C1251.81 670.455 1252.9 679.722 1256.59 689.085C1260.29 698.449 1265.78 707.209 1273.07 715.367C1280.35 723.525 1288.41 729.941 1297.25 734.616C1306.09 739.29 1315.13 741.36 1324.37 740.825C1333.6 740.29 1342.41 736.286 1350.77 728.811ZM1499.33 626.421C1487.89 636.64 1475.62 642.738 1462.53 644.715C1449.44 646.691 1436.44 644.926 1423.52 639.417C1410.6 633.909 1398.71 625.063 1387.82 612.879C1376.75 600.484 1369.26 587.511 1365.35 573.96C1361.44 560.309 1361.21 547.142 1364.64 534.459C1368.08 521.675 1375.31 510.364 1386.32 500.523C1394.91 492.86 1404.06 487.542 1413.78 484.57C1423.51 481.598 1433.12 481.01 1442.63 482.804C1452.14 484.599 1460.83 488.837 1468.7 495.519L1449.95 512.266C1443.55 507.981 1435.97 505.893 1427.21 506.002C1418.46 506.011 1409.95 509.705 1401.69 517.085C1394.38 523.614 1389.67 531.245 1387.57 539.979C1385.47 548.613 1385.96 557.745 1389.04 567.375C1392.12 576.906 1397.78 586.279 1406.01 595.497C1414.43 604.926 1423.25 611.812 1432.46 616.155C1441.72 620.451 1450.81 622.096 1459.72 621.09C1468.68 620.037 1476.87 616.199 1484.29 609.576C1489.16 605.223 1492.83 600.426 1495.29 595.182C1497.74 589.939 1498.93 584.498 1498.85 578.86C1498.76 573.221 1497.32 567.657 1494.51 562.166L1513.26 545.419C1518.64 553.57 1521.81 562.401 1522.78 571.912C1523.76 581.323 1522.34 590.775 1518.54 600.268C1514.74 609.661 1508.34 618.379 1499.33 626.421ZM1525.65 466.367L1591.22 539.788L1572.47 556.535L1427.14 393.802L1445.89 377.055L1499.25 436.808L1500.84 435.389C1498.07 426.531 1497.89 417.693 1500.3 408.875C1502.72 399.958 1508.72 391.217 1518.31 382.654C1526.62 375.227 1535.4 370.391 1544.63 368.146C1553.81 365.848 1563.18 366.578 1572.72 370.336C1582.28 373.994 1591.73 381.068 1601.1 391.556L1670.36 469.109L1651.61 485.856L1583.48 409.575C1574.83 399.881 1565.62 394.632 1555.85 393.829C1546.1 392.926 1536.79 396.425 1527.95 404.325C1521.8 409.813 1517.45 416.031 1514.9 422.979C1512.39 429.88 1511.96 437.074 1513.6 444.56C1515.29 452 1519.31 459.269 1525.65 466.367ZM1704.67 438.471L1595.67 316.421L1614.42 299.674L1723.42 421.724L1704.67 438.471ZM1587.04 287.564C1583.38 290.828 1579.12 292.398 1574.25 292.274C1569.43 292.102 1565.46 290.268 1562.33 286.772C1559.21 283.276 1557.84 279.124 1558.21 274.316C1558.63 269.461 1560.67 265.401 1564.33 262.137C1567.98 258.873 1572.22 257.326 1577.04 257.498C1581.91 257.622 1585.91 259.432 1589.03 262.929C1592.16 266.425 1593.5 270.6 1593.08 275.456C1592.71 280.263 1590.69 284.3 1587.04 287.564Z" fill="white"/>
<path d="M-359.916 791.136C-380.949 759.359 -372.24 716.548 -340.462 695.514L660.747 32.81C693.701 10.9979 738.206 21.2654 758.273 55.3094L1099.51 634.205C1118.15 665.831 1108.76 706.518 1078.15 726.781L106.102 1370.18C74.3252 1391.22 31.5138 1382.51 10.4804 1350.73L-359.916 791.136Z" fill="#5D5617"/>
<path d="M181.43 858.263C184.772 855.4 188.655 852.863 193.081 850.652C197.508 848.441 202.074 847.162 206.782 846.817C211.641 846.341 216.479 847.069 221.294 849.001C226.131 850.651 230.696 853.983 234.99 858.995L287.295 920.055C294.711 928.713 298.288 937.5 298.025 946.416C297.632 955.179 293.106 963.269 284.449 970.686C281.563 973.158 278.427 975.185 275.043 976.768C271.68 978.068 268.35 978.946 265.052 979.401C261.777 979.573 258.685 979.193 255.779 978.259C252.742 977.173 250.183 975.415 248.101 972.985C247.32 972.074 246.345 970.935 245.174 969.568C244.155 968.07 243.352 966.519 242.767 964.914C246.585 965.067 250.241 963.647 253.734 960.654C257.683 957.271 258.878 953.747 257.317 950.08C255.778 946.131 253.382 942.259 250.129 938.461L181.43 858.263ZM152.513 929.646C145.097 920.988 141.802 912.223 142.629 903.351C143.456 894.479 148.426 886.139 157.54 878.332C163.464 873.258 169.755 870.765 176.415 870.854C183.075 870.943 188.356 873.266 192.26 877.822C193.431 879.189 194.526 880.621 195.545 882.119C196.586 883.334 197.323 884.809 197.756 886.545C193.938 886.392 190.814 887.356 188.384 889.438C186.106 891.39 184.673 893.407 184.087 895.489C183.522 897.289 183.446 899.198 183.857 901.216C184.291 902.951 185.071 904.785 186.199 906.716C187.478 908.517 188.898 910.328 190.46 912.151L307.756 1049.08C304.262 1052.07 300.302 1054.68 295.876 1056.89C291.732 1059.12 287.23 1060.47 282.371 1060.95C277.794 1061.45 273.021 1060.8 268.054 1058.99C263.369 1057.21 258.75 1053.66 254.196 1048.35L152.513 929.646ZM331.728 868.562C333.29 870.385 334.862 872.067 336.445 873.607C338.18 875.018 339.937 876.146 341.715 876.993C343.516 877.557 345.414 877.775 347.41 877.645C349.427 877.234 351.575 876.052 353.854 874.101C355.069 873.06 356.154 871.867 357.109 870.522C358.085 868.896 358.715 867.171 358.998 865.349C360.646 866.044 362.067 866.934 363.259 868.019C364.322 868.952 365.374 870.026 366.415 871.241C370.578 876.101 371.976 881.883 370.607 888.586C369.238 895.289 365.668 901.112 359.896 906.056C350.783 913.863 341.714 917.418 332.69 916.721C323.666 916.024 316.031 912.03 309.786 904.739L255.529 841.401C251.235 836.389 248.569 831.431 247.529 826.528C246.511 821.343 246.534 816.451 247.598 811.853C248.815 807.124 250.779 802.808 253.492 798.904C256.357 794.87 259.536 791.356 263.029 788.364L331.728 868.562ZM391.092 832.722C395.645 838.038 398.431 843.288 399.449 848.473C400.489 853.376 400.401 858.192 399.185 862.921C397.99 867.368 395.961 871.608 393.096 875.642C390.101 879.524 386.933 882.896 383.591 885.759L314.892 805.56C313.331 803.738 311.683 802.121 309.948 800.71C308.364 799.17 306.673 798.117 304.872 797.553C303.094 796.706 301.196 796.489 299.178 796.9C297.182 797.03 295.045 798.07 292.767 800.022C291.552 801.063 290.456 802.397 289.479 804.023C288.524 805.368 287.906 806.951 287.623 808.773C285.975 808.079 284.619 807.265 283.556 806.332C282.363 805.247 281.247 804.097 280.206 802.882C276.042 798.021 274.645 792.239 276.013 785.537C277.382 778.834 280.952 773.01 286.724 768.066C295.838 760.26 304.841 756.629 313.735 757.174C322.499 757.567 330.589 762.092 338.006 770.75L391.092 832.722ZM465.191 815.86L463.14 817.616C459.647 820.609 455.828 823.222 451.684 825.455C447.561 827.406 443.288 828.565 438.862 828.933C434.458 829.018 429.99 828.106 425.457 826.195C420.923 824.285 416.575 820.899 412.411 816.039L358.545 753.156C353.861 747.688 350.934 742.426 349.764 737.372C348.594 732.317 348.606 727.566 349.801 723.119C350.995 718.673 353.09 714.508 356.085 710.626C359.08 706.744 362.4 703.241 366.045 700.119L465.191 815.86ZM435.719 679.542C437.67 681.821 439.307 684.5 440.63 687.581C442.104 690.532 442.851 693.71 442.872 697.116C442.893 700.522 442.056 704.003 440.363 707.56C438.822 710.988 436.077 714.392 432.128 717.775C428.938 720.508 425.944 722.546 423.145 723.89L416.509 716.144C413.647 712.802 410.632 710.513 407.465 709.275C404.298 708.038 400.838 708.763 397.084 711.452C395.414 712.883 394.231 714.423 393.536 716.072C392.863 717.438 392.321 718.956 391.908 720.627C389.023 719.411 386.41 717.436 384.068 714.702C380.164 710.145 378.691 704.429 379.648 697.552C380.604 690.676 384.576 684.245 391.563 678.26L393.158 676.894C395.87 674.834 398.983 673.088 402.498 671.658C406.013 670.227 409.69 669.447 413.53 669.318C417.37 669.189 421.209 669.982 425.048 671.697C428.909 673.13 432.466 675.745 435.719 679.542ZM496.611 750.627C499.734 754.273 501.707 758.113 502.53 762.148C503.505 766.053 503.634 769.893 502.917 773.667C502.2 777.442 500.865 780.956 498.911 784.209C496.958 787.462 494.755 790.271 492.303 792.635L490.708 794.001C483.721 799.986 476.757 802.923 469.815 802.813C462.873 802.702 457.451 800.369 453.547 795.812C451.205 793.078 449.655 790.192 448.897 787.155C452.433 787.286 455.492 786.246 458.074 784.034C461.611 780.477 463.011 777.039 462.275 773.72C461.69 770.271 459.967 766.875 457.104 763.534L450.468 755.787C452.226 753.228 454.7 750.582 457.89 747.85C461.839 744.467 465.625 742.277 469.248 741.28C473.023 740.153 476.592 739.862 479.954 740.405C483.316 740.948 486.407 742.251 489.227 744.313C492.068 746.092 494.529 748.197 496.611 750.627ZM392.202 591.598L394.708 589.451C402.607 582.685 411.035 579.152 419.995 578.851C429.106 578.42 437.63 582.837 445.567 592.103L564.424 730.855L563.057 732.026C559.563 735.019 555.68 737.555 551.406 739.637C547.283 741.588 542.933 742.812 538.356 743.31C533.8 743.525 529.245 742.819 524.69 741.19C520.157 739.28 515.808 735.895 511.645 731.034L392.202 591.598ZM517.142 632.311C515.58 630.488 513.932 628.871 512.197 627.461C510.614 625.92 508.922 624.867 507.122 624.303C505.343 623.456 503.445 623.239 501.428 623.65C499.432 623.78 497.295 624.821 495.016 626.772C493.801 627.813 492.705 629.147 491.729 630.774C490.774 632.118 490.155 633.702 489.872 635.524C488.224 634.829 486.868 634.015 485.806 633.082C484.613 631.997 483.496 630.847 482.455 629.632C478.292 624.771 476.894 618.99 478.263 612.287C479.632 605.584 483.202 599.761 488.974 594.817C498.087 587.01 507.091 583.379 515.985 583.924C524.749 584.317 532.839 588.843 540.255 597.5L616.371 686.357C612.877 689.349 608.983 692.027 604.687 694.39C600.412 696.472 595.911 697.826 591.181 698.454C586.474 698.799 581.702 698.147 576.865 696.497C572.049 694.565 567.365 690.941 562.811 685.624L517.142 632.311ZM506.569 518.911C502.146 513.746 500.26 507.856 500.913 501.24C501.436 494.472 504.203 488.941 509.216 484.647C514.228 480.354 520.042 478.533 526.658 479.186C533.296 479.557 538.827 482.324 543.251 487.489C547.675 492.653 549.56 498.543 548.908 505.159C548.407 511.645 545.65 517.035 540.638 521.329C535.625 525.623 529.8 527.584 523.162 527.213C516.524 526.842 510.993 524.075 506.569 518.911ZM540.043 551.07L542.549 548.923C550.447 542.157 558.876 538.624 567.836 538.323C576.947 537.892 585.471 542.309 593.408 551.574L669.718 640.658L668.351 641.829C664.858 644.822 660.974 647.359 656.7 649.44C652.578 651.391 648.228 652.616 643.65 653.113C639.095 653.329 634.539 652.622 629.984 650.994C625.451 649.083 621.103 645.698 616.939 640.838L540.043 551.07Z" fill="white"/>
</g>
<defs>
<clipPath id="clip0_13_2">
<rect width="2614" height="1353" fill="white"/>
</clipPath>
</defs>
</svg>
